<svg xmlns="http://www.w3.org/2000/svg" version="1.1" xmlns:xlink="http://www.w3.org/1999/xlink" xmlns:svgjs="http://svgjs.dev/svgjs" width="1440" height="120" preserveAspectRatio="none" viewBox="0 0 1440 120"><g mask="url(&quot;#SvgjsMask1042&quot;)" fill="none"><path d="M1488 120L0 120 L0 71.74Q61.09 12.83, 120 73.92Q186.44 20.37, 240 86.81Q281.11 55.91, 312 97.02Q357.06 22.07, 432 67.13Q474.83 37.96, 504 80.79Q548.08 52.87, 576 96.95Q622.18 23.13, 696 69.32Q762.04 15.36, 816 81.41Q883 28.41, 936 95.41Q958.3 45.71, 1008 68.01Q1050.7 38.72, 1080 81.42Q1121.33 50.75, 1152 92.07Q1200.08 20.15, 1272 68.23Q1313.63 37.86, 1344 79.48Q1388.94 52.42, 1416 97.36Q1436.31 45.67, 1488 65.97z" fill="rgba(255, 255, 255, 1)"></path><path d="M1512 120L0 120 L0 107.33Q44.63 79.97, 72 124.6Q116.28 48.88, 192 93.16Q260.76 41.92, 312 110.68Q356.44 83.12, 384 127.56Q405.41 76.97, 456 98.38Q522.48 44.86, 576 111.34Q645.43 60.77, 696 130.2Q736.9 51.11, 816 92.01Q865.09 69.09, 888 118.18Q940.79 50.97, 1008 103.76Q1061.52 37.28, 1128 90.79Q1183.45 74.25, 1200 129.7Q1249.21 58.91, 1320 108.13Q1373.33 41.45, 1440 94.78Q1493.35 76.13, 1512 129.47z" fill="rgba(255, 255, 255, 1)"></path></g><defs><mask id="SvgjsMask1042"><rect width="1440" height="120" fill="#ffffff"></rect></mask></defs></svg>