<svg xmlns="http://www.w3.org/2000/svg" version="1.1" xmlns:xlink="http://www.w3.org/1999/xlink" xmlns:svgjs="http://svgjs.dev/svgjs" width="1440" height="560" preserveAspectRatio="none" viewBox="0 0 1440 560"><g mask="url(&quot;#SvgjsMask1006&quot;)" fill="none"><rect width="1440" height="560" x="0" y="0" fill="#1e3266"></rect><path d="M1464 560L0 560 L0 341.59Q54.09 275.68, 120 329.78Q145.35 283.13, 192 308.48Q282.17 278.65, 312 368.82Q324.52 309.34, 384 321.86Q429.96 247.82, 504 293.78Q565.18 282.96, 576 344.15Q648.56 296.71, 696 369.27Q717.3 270.56, 816 291.86Q857.04 260.9, 888 301.94Q937.58 231.52, 1008 281.1Q1099.36 252.46, 1128 343.81Q1196.96 292.77, 1248 361.74Q1265.75 307.49, 1320 325.24Q1347.13 280.37, 1392 307.5Q1442.55 286.04, 1464 336.59z" fill="rgba(37, 70, 125, 1)"></path><path d="M1536 560L0 560 L0 433.72Q25.66 339.38, 120 365.04Q197.21 322.25, 240 399.47Q314.31 353.78, 360 428.09Q394.96 343.05, 480 378.02Q555.79 333.81, 600 409.6Q629.26 366.86, 672 396.12Q686.16 338.28, 744 352.45Q789.03 325.48, 816 370.51Q864.51 347.02, 888 395.54Q956.79 344.33, 1008 413.11Q1083.46 368.57, 1128 444.03Q1132.35 376.38, 1200 380.72Q1233.9 342.63, 1272 376.53Q1302.39 334.92, 1344 365.31Q1401.36 350.67, 1416 408.03Q1460.15 332.18, 1536 376.33z" fill="rgba(53, 108, 177, 1)"></path><path d="M1464 560L0 560 L0 445.32Q69.1 394.42, 120 463.53Q158.62 382.14, 240 420.76Q292.33 401.09, 312 453.42Q378.33 399.75, 432 466.09Q477.56 391.64, 552 437.2Q613.79 427, 624 488.79Q649.39 442.18, 696 467.57Q736.04 387.61, 816 427.65Q884.93 376.58, 936 445.52Q1029.43 418.95, 1056 512.39Q1086.89 471.28, 1128 502.18Q1131.8 433.98, 1200 437.77Q1228.38 394.14, 1272 422.52Q1348.22 378.75, 1392 454.97Q1456.46 447.44, 1464 511.9z" fill="rgba(255, 255, 255, 1)"></path><path d="M1464 560L0 560 L0 571.33Q41.13 540.46, 72 581.59Q91.79 529.38, 144 549.17Q155.83 489, 216 500.82Q259.21 472.03, 288 515.25Q376.56 483.81, 408 572.36Q457.72 502.08, 528 551.8Q541.48 493.28, 600 506.76Q630.74 465.5, 672 496.24Q738.8 491.04, 744 557.84Q788.62 482.46, 864 527.07Q894.34 485.41, 936 515.75Q988.32 448.06, 1056 500.38Q1117.5 489.88, 1128 551.38Q1174.5 477.88, 1248 524.38Q1309.4 513.79, 1320 575.19Q1320.61 503.8, 1392 504.4Q1422.55 462.94, 1464 493.49z" fill="white"></path></g><defs><mask id="SvgjsMask1006"><rect width="1440" height="560" fill="#ffffff"></rect></mask></defs></svg>